<svg height="404.0" version="1.1" width="245.078125" xmlns="http://www.w3.org/2000/svg" xmlns:xlink="http://www.w3.org/1999/xlink" style="overflow: hidden; position: relative;" viewBox="0 0 245.078125 505" preserveAspectRatio="xMidYMid meet"><desc style="-webkit-tap-highlight-color: rgba(0, 0, 0, 0);">Created with Raphaël 2.1.4</desc><defs style="-webkit-tap-highlight-color: rgba(0, 0, 0, 0);"><path stroke-linecap="round" d="M5,0 0,2.5 5,5z" id="raphael-marker-block" style="-webkit-tap-highlight-color: rgba(0, 0, 0, 0);"></path><marker id="raphael-marker-endblock33-obj12" markerHeight="3" markerWidth="3" orient="auto" refX="1.5" refY="1.5" style="-webkit-tap-highlight-color: rgba(0, 0, 0, 0);"><use xlink:href="#raphael-marker-block" transform="rotate(180 1.5 1.5) scale(0.6,0.6)" stroke-width="1.6667" fill="black" stroke="none" style="-webkit-tap-highlight-color: rgba(0, 0, 0, 0);"></use></marker><marker id="raphael-marker-endblock33-obj13" markerHeight="3" markerWidth="3" orient="auto" refX="1.5" refY="1.5" style="-webkit-tap-highlight-color: rgba(0, 0, 0, 0);"><use xlink:href="#raphael-marker-block" transform="rotate(180 1.5 1.5) scale(0.6,0.6)" stroke-width="1.6667" fill="black" stroke="none" style="-webkit-tap-highlight-color: rgba(0, 0, 0, 0);"></use></marker><marker id="raphael-marker-endblock33-obj14" markerHeight="3" markerWidth="3" orient="auto" refX="1.5" refY="1.5" style="-webkit-tap-highlight-color: rgba(0, 0, 0, 0);"><use xlink:href="#raphael-marker-block" transform="rotate(180 1.5 1.5) scale(0.6,0.6)" stroke-width="1.6667" fill="black" stroke="none" style="-webkit-tap-highlight-color: rgba(0, 0, 0, 0);"></use></marker><marker id="raphael-marker-endblock33-obj15" markerHeight="3" markerWidth="3" orient="auto" refX="1.5" refY="1.5" style="-webkit-tap-highlight-color: rgba(0, 0, 0, 0);"><use xlink:href="#raphael-marker-block" transform="rotate(180 1.5 1.5) scale(0.6,0.6)" stroke-width="1.6667" fill="black" stroke="none" style="-webkit-tap-highlight-color: rgba(0, 0, 0, 0);"></use></marker><marker id="raphael-marker-endblock33-obj16" markerHeight="3" markerWidth="3" orient="auto" refX="1.5" refY="1.5" style="-webkit-tap-highlight-color: rgba(0, 0, 0, 0);"><use xlink:href="#raphael-marker-block" transform="rotate(180 1.5 1.5) scale(0.6,0.6)" stroke-width="1.6667" fill="black" stroke="none" style="-webkit-tap-highlight-color: rgba(0, 0, 0, 0);"></use></marker></defs><rect x="0" y="0" width="95.109375" height="36" rx="20" ry="20" fill="#ffffff" stroke="#000000" style="-webkit-tap-highlight-color: rgba(0, 0, 0, 0);" stroke-width="3" class="flowchart" id="st3" transform="matrix(1,0,0,1,76.4844,6)"></rect><text x="10" y="18" text-anchor="start" font-family="&quot;Arial&quot;" font-size="14px" stroke="none" fill="#000000" style="-webkit-tap-highlight-color: rgba(0, 0, 0, 0); text-anchor: start; font-family: Arial; font-size: 14px;" id="st3t" class="flowchartt" transform="matrix(1,0,0,1,76.4844,6)" stroke-width="1"><tspan dy="5" style="-webkit-tap-highlight-color: rgba(0, 0, 0, 0);">start fun112</tspan></text><path fill="#ffffff" stroke="#000000" d="M10,18L0,36L109.015625,36L129.015625,0L20,0L10,18" stroke-width="3" id="io5" class="flowchart" style="-webkit-tap-highlight-color: rgba(0, 0, 0, 0);" transform="matrix(1,0,0,1,59.5313,98)"></path><text x="30" y="18" text-anchor="start" font-family="&quot;Arial&quot;" font-size="14px" stroke="none" fill="#000000" style="-webkit-tap-highlight-color: rgba(0, 0, 0, 0); text-anchor: start; font-family: Arial; font-size: 14px;" id="io5t" class="flowchartt" transform="matrix(1,0,0,1,59.5313,98)" stroke-width="1"><tspan dy="5" style="-webkit-tap-highlight-color: rgba(0, 0, 0, 0);">input: N, M</tspan></text><rect x="0" y="0" width="68.515625" height="36" rx="0" ry="0" fill="#ffffff" stroke="#000000" style="-webkit-tap-highlight-color: rgba(0, 0, 0, 0);" stroke-width="3" class="flowchart" id="op8" transform="matrix(1,0,0,1,89.7813,190)"></rect><text x="10" y="18" text-anchor="start" font-family="&quot;Arial&quot;" font-size="14px" stroke="none" fill="#000000" style="-webkit-tap-highlight-color: rgba(0, 0, 0, 0); text-anchor: start; font-family: Arial; font-size: 14px;" id="op8t" class="flowchartt" transform="matrix(1,0,0,1,89.7813,190)" stroke-width="1"><tspan dy="5" style="-webkit-tap-highlight-color: rgba(0, 0, 0, 0);">ans = 0</tspan></text><rect x="0" y="0" width="236.078125" height="36" rx="0" ry="0" fill="#ffffff" stroke="#000000" style="-webkit-tap-highlight-color: rgba(0, 0, 0, 0);" stroke-width="3" class="flowchart" id="cond11" transform="matrix(1,0,0,1,6,282)"></rect><text x="10" y="18" text-anchor="start" font-family="&quot;Arial&quot;" font-size="14px" stroke="none" fill="#000000" style="-webkit-tap-highlight-color: rgba(0, 0, 0, 0); text-anchor: start; font-family: Arial; font-size: 14px;" id="cond11t" class="flowchartt" transform="matrix(1,0,0,1,6,282)" stroke-width="1"><tspan dy="5" style="-webkit-tap-highlight-color: rgba(0, 0, 0, 0);">ans = (ans + M) while  i in range(N)</tspan></text><path fill="#ffffff" stroke="#000000" d="M10,18L0,36L111.265625,36L131.265625,0L20,0L10,18" stroke-width="3" id="io26" class="flowchart" style="-webkit-tap-highlight-color: rgba(0, 0, 0, 0);" transform="matrix(1,0,0,1,58.4063,374)"></path><text x="30" y="18" text-anchor="start" font-family="&quot;Arial&quot;" font-size="14px" stroke="none" fill="#000000" style="-webkit-tap-highlight-color: rgba(0, 0, 0, 0); text-anchor: start; font-family: Arial; font-size: 14px;" id="io26t" class="flowchartt" transform="matrix(1,0,0,1,58.4063,374)" stroke-width="1"><tspan dy="5" style="-webkit-tap-highlight-color: rgba(0, 0, 0, 0);">output:  ans</tspan></text><rect x="0" y="0" width="137.953125" height="36" rx="20" ry="20" fill="#ffffff" stroke="#000000" style="-webkit-tap-highlight-color: rgba(0, 0, 0, 0);" stroke-width="3" class="flowchart" id="e24" transform="matrix(1,0,0,1,55.0625,466)"></rect><text x="10" y="18" text-anchor="start" font-family="&quot;Arial&quot;" font-size="14px" stroke="none" fill="#000000" style="-webkit-tap-highlight-color: rgba(0, 0, 0, 0); text-anchor: start; font-family: Arial; font-size: 14px;" id="e24t" class="flowchartt" transform="matrix(1,0,0,1,55.0625,466)" stroke-width="1"><tspan dy="5" style="-webkit-tap-highlight-color: rgba(0, 0, 0, 0);">end function return</tspan><tspan dy="16.8" x="10" style="-webkit-tap-highlight-color: rgba(0, 0, 0, 0);"></tspan></text><path fill="none" stroke="#000000" d="M124.0390625,42C124.0390625,42,124.0390625,80.20077085494995,124.0390625,93.50016031763516" stroke-width="3" marker-end="url(#raphael-marker-endblock33-obj12)" style="-webkit-tap-highlight-color: rgba(0, 0, 0, 0);"></path><path fill="none" stroke="#000000" d="M124.0390625,134C124.0390625,134,124.0390625,172.20077085494995,124.0390625,185.50016031763516" stroke-width="3" marker-end="url(#raphael-marker-endblock33-obj13)" style="-webkit-tap-highlight-color: rgba(0, 0, 0, 0);"></path><path fill="none" stroke="#000000" d="M124.0390625,226C124.0390625,226,124.0390625,264.20077085494995,124.0390625,277.50016031763516" stroke-width="3" marker-end="url(#raphael-marker-endblock33-obj14)" style="-webkit-tap-highlight-color: rgba(0, 0, 0, 0);"></path><path fill="none" stroke="#000000" d="M124.0390625,318C124.0390625,318,124.0390625,356.20077085494995,124.0390625,369.50016031763516" stroke-width="3" marker-end="url(#raphael-marker-endblock33-obj15)" style="-webkit-tap-highlight-color: rgba(0, 0, 0, 0);"></path><path fill="none" stroke="#000000" d="M124.0390625,410C124.0390625,410,124.0390625,448.20077085494995,124.0390625,461.50016031763516" stroke-width="3" marker-end="url(#raphael-marker-endblock33-obj16)" style="-webkit-tap-highlight-color: rgba(0, 0, 0, 0);"></path></svg>