<svg height="706.3671875" version="1.1" width="610.12109375" xmlns="http://www.w3.org/2000/svg" xmlns:xlink="http://www.w3.org/1999/xlink" style="overflow: hidden; position: relative;" viewBox="0 0 610.12109375 882.958984375" preserveAspectRatio="xMidYMid meet"><desc style="-webkit-tap-highlight-color: rgba(0, 0, 0, 0);">Created with Raphaël 2.1.4</desc><defs style="-webkit-tap-highlight-color: rgba(0, 0, 0, 0);"><path stroke-linecap="round" d="M5,0 0,2.5 5,5z" id="raphael-marker-block" style="-webkit-tap-highlight-color: rgba(0, 0, 0, 0);"></path><marker id="raphael-marker-endblock33-obj16" markerHeight="3" markerWidth="3" orient="auto" refX="1.5" refY="1.5" style="-webkit-tap-highlight-color: rgba(0, 0, 0, 0);"><use xlink:href="#raphael-marker-block" transform="rotate(180 1.5 1.5) scale(0.6,0.6)" stroke-width="1.6667" fill="black" stroke="none" style="-webkit-tap-highlight-color: rgba(0, 0, 0, 0);"></use></marker><marker id="raphael-marker-endblock33-obj17" markerHeight="3" markerWidth="3" orient="auto" refX="1.5" refY="1.5" style="-webkit-tap-highlight-color: rgba(0, 0, 0, 0);"><use xlink:href="#raphael-marker-block" transform="rotate(180 1.5 1.5) scale(0.6,0.6)" stroke-width="1.6667" fill="black" stroke="none" style="-webkit-tap-highlight-color: rgba(0, 0, 0, 0);"></use></marker><marker id="raphael-marker-endblock33-obj18" markerHeight="3" markerWidth="3" orient="auto" refX="1.5" refY="1.5" style="-webkit-tap-highlight-color: rgba(0, 0, 0, 0);"><use xlink:href="#raphael-marker-block" transform="rotate(180 1.5 1.5) scale(0.6,0.6)" stroke-width="1.6667" fill="black" stroke="none" style="-webkit-tap-highlight-color: rgba(0, 0, 0, 0);"></use></marker><marker id="raphael-marker-endblock33-obj19" markerHeight="3" markerWidth="3" orient="auto" refX="1.5" refY="1.5" style="-webkit-tap-highlight-color: rgba(0, 0, 0, 0);"><use xlink:href="#raphael-marker-block" transform="rotate(180 1.5 1.5) scale(0.6,0.6)" stroke-width="1.6667" fill="black" stroke="none" style="-webkit-tap-highlight-color: rgba(0, 0, 0, 0);"></use></marker><marker id="raphael-marker-endblock33-obj20" markerHeight="3" markerWidth="3" orient="auto" refX="1.5" refY="1.5" style="-webkit-tap-highlight-color: rgba(0, 0, 0, 0);"><use xlink:href="#raphael-marker-block" transform="rotate(180 1.5 1.5) scale(0.6,0.6)" stroke-width="1.6667" fill="black" stroke="none" style="-webkit-tap-highlight-color: rgba(0, 0, 0, 0);"></use></marker><marker id="raphael-marker-endblock33-obj22" markerHeight="3" markerWidth="3" orient="auto" refX="1.5" refY="1.5" style="-webkit-tap-highlight-color: rgba(0, 0, 0, 0);"><use xlink:href="#raphael-marker-block" transform="rotate(180 1.5 1.5) scale(0.6,0.6)" stroke-width="1.6667" fill="black" stroke="none" style="-webkit-tap-highlight-color: rgba(0, 0, 0, 0);"></use></marker><marker id="raphael-marker-endblock33-obj24" markerHeight="3" markerWidth="3" orient="auto" refX="1.5" refY="1.5" style="-webkit-tap-highlight-color: rgba(0, 0, 0, 0);"><use xlink:href="#raphael-marker-block" transform="rotate(180 1.5 1.5) scale(0.6,0.6)" stroke-width="1.6667" fill="black" stroke="none" style="-webkit-tap-highlight-color: rgba(0, 0, 0, 0);"></use></marker><marker id="raphael-marker-endblock33-obj25" markerHeight="3" markerWidth="3" orient="auto" refX="1.5" refY="1.5" style="-webkit-tap-highlight-color: rgba(0, 0, 0, 0);"><use xlink:href="#raphael-marker-block" transform="rotate(180 1.5 1.5) scale(0.6,0.6)" stroke-width="1.6667" fill="black" stroke="none" style="-webkit-tap-highlight-color: rgba(0, 0, 0, 0);"></use></marker></defs><rect x="0" y="0" width="95.109375" height="36" rx="20" ry="20" fill="#ffffff" stroke="#000000" style="-webkit-tap-highlight-color: rgba(0, 0, 0, 0);" stroke-width="3" class="flowchart" id="st3" transform="matrix(1,0,0,1,124.5234,59.9941)"></rect><text x="10" y="18" text-anchor="start" font-family="&quot;Arial&quot;" font-size="14px" stroke="none" fill="#000000" style="-webkit-tap-highlight-color: rgba(0, 0, 0, 0); text-anchor: start; font-family: Arial; font-size: 14px;" id="st3t" class="flowchartt" transform="matrix(1,0,0,1,124.5234,59.9941)" stroke-width="1"><tspan dy="5" style="-webkit-tap-highlight-color: rgba(0, 0, 0, 0);">start fun114</tspan></text><path fill="#ffffff" stroke="#000000" d="M10,18L0,36L158.171875,36L178.171875,0L20,0L10,18" stroke-width="3" id="io5" class="flowchart" style="-webkit-tap-highlight-color: rgba(0, 0, 0, 0);" transform="matrix(1,0,0,1,82.9922,205.9883)"></path><text x="30" y="18" text-anchor="start" font-family="&quot;Arial&quot;" font-size="14px" stroke="none" fill="#000000" style="-webkit-tap-highlight-color: rgba(0, 0, 0, 0); text-anchor: start; font-family: Arial; font-size: 14px;" id="io5t" class="flowchartt" transform="matrix(1,0,0,1,82.9922,205.9883)" stroke-width="1"><tspan dy="5" style="-webkit-tap-highlight-color: rgba(0, 0, 0, 0);">input: num1, num2</tspan></text><rect x="0" y="0" width="64.625" height="36" rx="0" ry="0" fill="#ffffff" stroke="#000000" style="-webkit-tap-highlight-color: rgba(0, 0, 0, 0);" stroke-width="3" class="flowchart" id="op8" transform="matrix(1,0,0,1,139.7656,351.9824)"></rect><text x="10" y="18" text-anchor="start" font-family="&quot;Arial&quot;" font-size="14px" stroke="none" fill="#000000" style="-webkit-tap-highlight-color: rgba(0, 0, 0, 0); text-anchor: start; font-family: Arial; font-size: 14px;" id="op8t" class="flowchartt" transform="matrix(1,0,0,1,139.7656,351.9824)" stroke-width="1"><tspan dy="5" style="-webkit-tap-highlight-color: rgba(0, 0, 0, 0);">hcf = 0</tspan></text><rect x="0" y="0" width="171.875" height="36" rx="0" ry="0" fill="#ffffff" stroke="#000000" style="-webkit-tap-highlight-color: rgba(0, 0, 0, 0);" stroke-width="3" class="flowchart" id="op10" transform="matrix(1,0,0,1,86.1406,497.9766)"></rect><text x="10" y="18" text-anchor="start" font-family="&quot;Arial&quot;" font-size="14px" stroke="none" fill="#000000" style="-webkit-tap-highlight-color: rgba(0, 0, 0, 0); text-anchor: start; font-family: Arial; font-size: 14px;" id="op10t" class="flowchartt" transform="matrix(1,0,0,1,86.1406,497.9766)" stroke-width="1"><tspan dy="5" style="-webkit-tap-highlight-color: rgba(0, 0, 0, 0);">limit = min(num1, num2)</tspan></text><path fill="#ffffff" stroke="#000000" d="M71.994140625,35.9970703125L0,71.994140625L143.98828125,143.98828125L287.9765625,71.994140625L143.98828125,0L0,71.994140625" stroke-width="3" id="cond13" class="flowchart" style="-webkit-tap-highlight-color: rgba(0, 0, 0, 0);" transform="matrix(1,0,0,1,28.0898,589.9766)"></path><text x="76.994140625" y="71.994140625" text-anchor="start" font-family="&quot;Arial&quot;" font-size="14px" stroke="none" fill="#000000" style="-webkit-tap-highlight-color: rgba(0, 0, 0, 0); text-anchor: start; font-family: Arial; font-size: 14px;" id="cond13t" class="flowchartt" transform="matrix(1,0,0,1,28.0898,589.9766)" stroke-width="1"><tspan dy="5.009765625" style="-webkit-tap-highlight-color: rgba(0, 0, 0, 0);">for i in range(1, (limit + 1))</tspan></text><rect x="0" y="0" width="332.15625" height="36" rx="0" ry="0" fill="#ffffff" stroke="#000000" style="-webkit-tap-highlight-color: rgba(0, 0, 0, 0);" stroke-width="3" class="flowchart" id="cond30" transform="matrix(1,0,0,1,6,843.959)"></rect><text x="10" y="18" text-anchor="start" font-family="&quot;Arial&quot;" font-size="14px" stroke="none" fill="#000000" style="-webkit-tap-highlight-color: rgba(0, 0, 0, 0); text-anchor: start; font-family: Arial; font-size: 14px;" id="cond30t" class="flowchartt" transform="matrix(1,0,0,1,6,843.959)" stroke-width="1"><tspan dy="5" style="-webkit-tap-highlight-color: rgba(0, 0, 0, 0);">hcf = i if  (((num1 % i) == 0) and ((num2 % i) == 0))</tspan></text><path fill="#ffffff" stroke="#000000" d="M10,18L0,36L107.484375,36L127.484375,0L20,0L10,18" stroke-width="3" id="io45" class="flowchart" style="-webkit-tap-highlight-color: rgba(0, 0, 0, 0);" transform="matrix(1,0,0,1,474.4023,643.9707)"></path><text x="30" y="18" text-anchor="start" font-family="&quot;Arial&quot;" font-size="14px" stroke="none" fill="#000000" style="-webkit-tap-highlight-color: rgba(0, 0, 0, 0); text-anchor: start; font-family: Arial; font-size: 14px;" id="io45t" class="flowchartt" transform="matrix(1,0,0,1,474.4023,643.9707)" stroke-width="1"><tspan dy="5" style="-webkit-tap-highlight-color: rgba(0, 0, 0, 0);">output:  hcf</tspan></text><rect x="0" y="0" width="137.953125" height="36" rx="20" ry="20" fill="#ffffff" stroke="#000000" style="-webkit-tap-highlight-color: rgba(0, 0, 0, 0);" stroke-width="3" class="flowchart" id="e43" transform="matrix(1,0,0,1,469.168,789.9648)"></rect><text x="10" y="18" text-anchor="start" font-family="&quot;Arial&quot;" font-size="14px" stroke="none" fill="#000000" style="-webkit-tap-highlight-color: rgba(0, 0, 0, 0); text-anchor: start; font-family: Arial; font-size: 14px;" id="e43t" class="flowchartt" transform="matrix(1,0,0,1,469.168,789.9648)" stroke-width="1"><tspan dy="5" style="-webkit-tap-highlight-color: rgba(0, 0, 0, 0);">end function return</tspan><tspan dy="16.8" x="10" style="-webkit-tap-highlight-color: rgba(0, 0, 0, 0);"></tspan></text><path fill="none" stroke="#000000" d="M172.078125,95.994140625C172.078125,95.994140625,172.078125,180.82044190226588,172.078125,201.48856902011534" stroke-width="3" marker-end="url(#raphael-marker-endblock33-obj16)" style="-webkit-tap-highlight-color: rgba(0, 0, 0, 0);"></path><path fill="none" stroke="#000000" d="M172.078125,241.98828125C172.078125,241.98828125,172.078125,326.8145825272659,172.078125,347.48270964511534" stroke-width="3" marker-end="url(#raphael-marker-endblock33-obj17)" style="-webkit-tap-highlight-color: rgba(0, 0, 0, 0);"></path><path fill="none" stroke="#000000" d="M172.078125,387.982421875C172.078125,387.982421875,172.078125,472.8087231522659,172.078125,493.47685027011534" stroke-width="3" marker-end="url(#raphael-marker-endblock33-obj18)" style="-webkit-tap-highlight-color: rgba(0, 0, 0, 0);"></path><path fill="none" stroke="#000000" d="M172.078125,533.9765625C172.078125,533.9765625,172.078125,572.17733335495,172.078125,585.4767228176352" stroke-width="3" marker-end="url(#raphael-marker-endblock33-obj19)" style="-webkit-tap-highlight-color: rgba(0, 0, 0, 0);"></path><path fill="none" stroke="#000000" d="M172.078125,733.96484375C172.078125,733.96484375,172.078125,818.7911450272659,172.078125,839.4592721451154" stroke-width="3" marker-end="url(#raphael-marker-endblock33-obj20)" style="-webkit-tap-highlight-color: rgba(0, 0, 0, 0);"></path><text x="177.078125" y="743.96484375" text-anchor="start" font-family="&quot;Arial&quot;" font-size="14px" stroke="none" fill="#000000" style="-webkit-tap-highlight-color: rgba(0, 0, 0, 0); text-anchor: start; font-family: Arial; font-size: 14px;" stroke-width="1"><tspan dy="5.01171875" style="-webkit-tap-highlight-color: rgba(0, 0, 0, 0);">yes</tspan></text><path fill="none" stroke="#000000" d="M316.06640625,661.970703125C316.06640625,661.970703125,453.1296075582504,661.970703125,479.8997640637681,661.970703125" stroke-width="3" marker-end="url(#raphael-marker-endblock33-obj22)" style="-webkit-tap-highlight-color: rgba(0, 0, 0, 0);"></path><text x="321.06640625" y="651.970703125" text-anchor="start" font-family="&quot;Arial&quot;" font-size="14px" stroke="none" fill="#000000" style="-webkit-tap-highlight-color: rgba(0, 0, 0, 0); text-anchor: start; font-family: Arial; font-size: 14px;" stroke-width="1"><tspan dy="5.001953125" style="-webkit-tap-highlight-color: rgba(0, 0, 0, 0);">no</tspan></text><path fill="none" stroke="#000000" d="M338.15625,861.958984375C338.15625,861.958984375,363.15625,861.958984375,363.15625,861.958984375C363.15625,861.958984375,363.15625,667.970703125,363.15625,667.970703125C363.15625,667.970703125,375.15625,661.970703125,363.15625,655.970703125C363.15625,655.970703125,363.15625,564.9765625,363.15625,564.9765625C363.15625,564.9765625,172.078125,564.9765625,172.078125,564.9765625C172.078125,564.9765625,172.078125,578.2805337905884,172.078125,585.4781901333481" stroke-width="3" marker-end="url(#raphael-marker-endblock33-obj24)" style="-webkit-tap-highlight-color: rgba(0, 0, 0, 0);"></path><path fill="none" stroke="#000000" d="M538.14453125,679.970703125C538.14453125,679.970703125,538.14453125,764.7970044022659,538.14453125,785.4651315201154" stroke-width="3" marker-end="url(#raphael-marker-endblock33-obj25)" style="-webkit-tap-highlight-color: rgba(0, 0, 0, 0);"></path></svg>