<svg height="738.3000000000001" version="1.1" width="619.8046875" xmlns="http://www.w3.org/2000/svg" xmlns:xlink="http://www.w3.org/1999/xlink" style="overflow: hidden; position: relative;" viewBox="0 0 619.8046875 922.875" preserveAspectRatio="xMidYMid meet"><desc style="-webkit-tap-highlight-color: rgba(0, 0, 0, 0);">Created with Raphaël 2.1.4</desc><defs style="-webkit-tap-highlight-color: rgba(0, 0, 0, 0);"><path stroke-linecap="round" d="M5,0 0,2.5 5,5z" id="raphael-marker-block" style="-webkit-tap-highlight-color: rgba(0, 0, 0, 0);"></path><marker id="raphael-marker-endblock33-obj18" markerHeight="3" markerWidth="3" orient="auto" refX="1.5" refY="1.5" style="-webkit-tap-highlight-color: rgba(0, 0, 0, 0);"><use xlink:href="#raphael-marker-block" transform="rotate(180 1.5 1.5) scale(0.6,0.6)" stroke-width="1.6667" fill="black" stroke="none" style="-webkit-tap-highlight-color: rgba(0, 0, 0, 0);"></use></marker><marker id="raphael-marker-endblock33-obj19" markerHeight="3" markerWidth="3" orient="auto" refX="1.5" refY="1.5" style="-webkit-tap-highlight-color: rgba(0, 0, 0, 0);"><use xlink:href="#raphael-marker-block" transform="rotate(180 1.5 1.5) scale(0.6,0.6)" stroke-width="1.6667" fill="black" stroke="none" style="-webkit-tap-highlight-color: rgba(0, 0, 0, 0);"></use></marker><marker id="raphael-marker-endblock33-obj20" markerHeight="3" markerWidth="3" orient="auto" refX="1.5" refY="1.5" style="-webkit-tap-highlight-color: rgba(0, 0, 0, 0);"><use xlink:href="#raphael-marker-block" transform="rotate(180 1.5 1.5) scale(0.6,0.6)" stroke-width="1.6667" fill="black" stroke="none" style="-webkit-tap-highlight-color: rgba(0, 0, 0, 0);"></use></marker><marker id="raphael-marker-endblock33-obj21" markerHeight="3" markerWidth="3" orient="auto" refX="1.5" refY="1.5" style="-webkit-tap-highlight-color: rgba(0, 0, 0, 0);"><use xlink:href="#raphael-marker-block" transform="rotate(180 1.5 1.5) scale(0.6,0.6)" stroke-width="1.6667" fill="black" stroke="none" style="-webkit-tap-highlight-color: rgba(0, 0, 0, 0);"></use></marker><marker id="raphael-marker-endblock33-obj22" markerHeight="3" markerWidth="3" orient="auto" refX="1.5" refY="1.5" style="-webkit-tap-highlight-color: rgba(0, 0, 0, 0);"><use xlink:href="#raphael-marker-block" transform="rotate(180 1.5 1.5) scale(0.6,0.6)" stroke-width="1.6667" fill="black" stroke="none" style="-webkit-tap-highlight-color: rgba(0, 0, 0, 0);"></use></marker><marker id="raphael-marker-endblock33-obj24" markerHeight="3" markerWidth="3" orient="auto" refX="1.5" refY="1.5" style="-webkit-tap-highlight-color: rgba(0, 0, 0, 0);"><use xlink:href="#raphael-marker-block" transform="rotate(180 1.5 1.5) scale(0.6,0.6)" stroke-width="1.6667" fill="black" stroke="none" style="-webkit-tap-highlight-color: rgba(0, 0, 0, 0);"></use></marker><marker id="raphael-marker-endblock33-obj26" markerHeight="3" markerWidth="3" orient="auto" refX="1.5" refY="1.5" style="-webkit-tap-highlight-color: rgba(0, 0, 0, 0);"><use xlink:href="#raphael-marker-block" transform="rotate(180 1.5 1.5) scale(0.6,0.6)" stroke-width="1.6667" fill="black" stroke="none" style="-webkit-tap-highlight-color: rgba(0, 0, 0, 0);"></use></marker><marker id="raphael-marker-endblock33-obj27" markerHeight="3" markerWidth="3" orient="auto" refX="1.5" refY="1.5" style="-webkit-tap-highlight-color: rgba(0, 0, 0, 0);"><use xlink:href="#raphael-marker-block" transform="rotate(180 1.5 1.5) scale(0.6,0.6)" stroke-width="1.6667" fill="black" stroke="none" style="-webkit-tap-highlight-color: rgba(0, 0, 0, 0);"></use></marker><marker id="raphael-marker-endblock33-obj28" markerHeight="3" markerWidth="3" orient="auto" refX="1.5" refY="1.5" style="-webkit-tap-highlight-color: rgba(0, 0, 0, 0);"><use xlink:href="#raphael-marker-block" transform="rotate(180 1.5 1.5) scale(0.6,0.6)" stroke-width="1.6667" fill="black" stroke="none" style="-webkit-tap-highlight-color: rgba(0, 0, 0, 0);"></use></marker></defs><rect x="0" y="0" width="96.140625" height="36" rx="20" ry="20" fill="#ffffff" stroke="#000000" style="-webkit-tap-highlight-color: rgba(0, 0, 0, 0);" stroke-width="3" class="flowchart" id="st3" transform="matrix(1,0,0,1,142.1094,46.7344)"></rect><text x="10" y="18" text-anchor="start" font-family="&quot;Arial&quot;" font-size="14px" stroke="none" fill="#000000" style="-webkit-tap-highlight-color: rgba(0, 0, 0, 0); text-anchor: start; font-family: Arial; font-size: 14px;" id="st3t" class="flowchartt" transform="matrix(1,0,0,1,142.1094,46.7344)" stroke-width="1"><tspan dy="5" style="-webkit-tap-highlight-color: rgba(0, 0, 0, 0);">start fun199</tspan></text><path fill="#ffffff" stroke="#000000" d="M10,18L0,36L113.578125,36L133.578125,0L20,0L10,18" stroke-width="3" id="io5" class="flowchart" style="-webkit-tap-highlight-color: rgba(0, 0, 0, 0);" transform="matrix(1,0,0,1,123.3906,179.4688)"></path><text x="30" y="18" text-anchor="start" font-family="&quot;Arial&quot;" font-size="14px" stroke="none" fill="#000000" style="-webkit-tap-highlight-color: rgba(0, 0, 0, 0); text-anchor: start; font-family: Arial; font-size: 14px;" id="io5t" class="flowchartt" transform="matrix(1,0,0,1,123.3906,179.4688)" stroke-width="1"><tspan dy="5" style="-webkit-tap-highlight-color: rgba(0, 0, 0, 0);">input: string</tspan></text><rect x="0" y="0" width="137.671875" height="36" rx="0" ry="0" fill="#ffffff" stroke="#000000" style="-webkit-tap-highlight-color: rgba(0, 0, 0, 0);" stroke-width="3" class="flowchart" id="op8" transform="matrix(1,0,0,1,121.3438,312.2031)"></rect><text x="10" y="18" text-anchor="start" font-family="&quot;Arial&quot;" font-size="14px" stroke="none" fill="#000000" style="-webkit-tap-highlight-color: rgba(0, 0, 0, 0); text-anchor: start; font-family: Arial; font-size: 14px;" id="op8t" class="flowchartt" transform="matrix(1,0,0,1,121.3438,312.2031)" stroke-width="1"><tspan dy="5" style="-webkit-tap-highlight-color: rgba(0, 0, 0, 0);">length = len(string)</tspan></text><rect x="0" y="0" width="68.296875" height="36" rx="0" ry="0" fill="#ffffff" stroke="#000000" style="-webkit-tap-highlight-color: rgba(0, 0, 0, 0);" stroke-width="3" class="flowchart" id="op10" transform="matrix(1,0,0,1,156.0313,444.9375)"></rect><text x="10" y="18" text-anchor="start" font-family="&quot;Arial&quot;" font-size="14px" stroke="none" fill="#000000" style="-webkit-tap-highlight-color: rgba(0, 0, 0, 0); text-anchor: start; font-family: Arial; font-size: 14px;" id="op10t" class="flowchartt" transform="matrix(1,0,0,1,156.0313,444.9375)" stroke-width="1"><tspan dy="5" style="-webkit-tap-highlight-color: rgba(0, 0, 0, 0);">new = ''</tspan></text><path fill="#ffffff" stroke="#000000" d="M58.734375,29.3671875L0,58.734375L117.46875,117.46875L234.9375,58.734375L117.46875,0L0,58.734375" stroke-width="3" id="cond13" class="flowchart" style="-webkit-tap-highlight-color: rgba(0, 0, 0, 0);" transform="matrix(1,0,0,1,72.7109,536.9375)"></path><text x="63.734375" y="58.734375" text-anchor="start" font-family="&quot;Arial&quot;" font-size="14px" stroke="none" fill="#000000" style="-webkit-tap-highlight-color: rgba(0, 0, 0, 0); text-anchor: start; font-family: Arial; font-size: 14px;" id="cond13t" class="flowchartt" transform="matrix(1,0,0,1,72.7109,536.9375)" stroke-width="1"><tspan dy="5" style="-webkit-tap-highlight-color: rgba(0, 0, 0, 0);">for i in range(length)</tspan></text><rect x="0" y="0" width="139.96875" height="36" rx="0" ry="0" fill="#ffffff" stroke="#000000" style="-webkit-tap-highlight-color: rgba(0, 0, 0, 0);" stroke-width="3" class="flowchart" id="op31" transform="matrix(1,0,0,1,120.1953,751.1406)"></rect><text x="10" y="18" text-anchor="start" font-family="&quot;Arial&quot;" font-size="14px" stroke="none" fill="#000000" style="-webkit-tap-highlight-color: rgba(0, 0, 0, 0); text-anchor: start; font-family: Arial; font-size: 14px;" id="op31t" class="flowchartt" transform="matrix(1,0,0,1,120.1953,751.1406)" stroke-width="1"><tspan dy="5" style="-webkit-tap-highlight-color: rgba(0, 0, 0, 0);">ascii = ord(string[i])</tspan></text><rect x="0" y="0" width="368.359375" height="36" rx="0" ry="0" fill="#ffffff" stroke="#000000" style="-webkit-tap-highlight-color: rgba(0, 0, 0, 0);" stroke-width="3" class="flowchart" id="cond34" transform="matrix(1,0,0,1,6,883.875)"></rect><text x="10" y="18" text-anchor="start" font-family="&quot;Arial&quot;" font-size="14px" stroke="none" fill="#000000" style="-webkit-tap-highlight-color: rgba(0, 0, 0, 0); text-anchor: start; font-family: Arial; font-size: 14px;" id="cond34t" class="flowchartt" transform="matrix(1,0,0,1,6,883.875)" stroke-width="1"><tspan dy="5" style="-webkit-tap-highlight-color: rgba(0, 0, 0, 0);">new = (new + string[i]) if  ((ascii &gt;= 48) and (ascii &lt;= 57))</tspan></text><path fill="#ffffff" stroke="#000000" d="M10,18L0,36L115.265625,36L135.265625,0L20,0L10,18" stroke-width="3" id="io49" class="flowchart" style="-webkit-tap-highlight-color: rgba(0, 0, 0, 0);" transform="matrix(1,0,0,1,480.1953,577.6719)"></path><text x="30" y="18" text-anchor="start" font-family="&quot;Arial&quot;" font-size="14px" stroke="none" fill="#000000" style="-webkit-tap-highlight-color: rgba(0, 0, 0, 0); text-anchor: start; font-family: Arial; font-size: 14px;" id="io49t" class="flowchartt" transform="matrix(1,0,0,1,480.1953,577.6719)" stroke-width="1"><tspan dy="5" style="-webkit-tap-highlight-color: rgba(0, 0, 0, 0);">output:  new</tspan></text><rect x="0" y="0" width="137.953125" height="36" rx="20" ry="20" fill="#ffffff" stroke="#000000" style="-webkit-tap-highlight-color: rgba(0, 0, 0, 0);" stroke-width="3" class="flowchart" id="e47" transform="matrix(1,0,0,1,478.8516,710.4063)"></rect><text x="10" y="18" text-anchor="start" font-family="&quot;Arial&quot;" font-size="14px" stroke="none" fill="#000000" style="-webkit-tap-highlight-color: rgba(0, 0, 0, 0); text-anchor: start; font-family: Arial; font-size: 14px;" id="e47t" class="flowchartt" transform="matrix(1,0,0,1,478.8516,710.4063)" stroke-width="1"><tspan dy="5" style="-webkit-tap-highlight-color: rgba(0, 0, 0, 0);">end function return</tspan><tspan dy="16.8" x="10" style="-webkit-tap-highlight-color: rgba(0, 0, 0, 0);"></tspan></text><path fill="none" stroke="#000000" d="M190.1796875,82.734375C190.1796875,82.734375,190.1796875,155.89017507061362,190.1796875,174.96497840933807" stroke-width="3" marker-end="url(#raphael-marker-endblock33-obj18)" style="-webkit-tap-highlight-color: rgba(0, 0, 0, 0);"></path><path fill="none" stroke="#000000" d="M190.1796875,215.46875C190.1796875,215.46875,190.1796875,288.6245500706136,190.1796875,307.6993534093381" stroke-width="3" marker-end="url(#raphael-marker-endblock33-obj19)" style="-webkit-tap-highlight-color: rgba(0, 0, 0, 0);"></path><path fill="none" stroke="#000000" d="M190.1796875,348.203125C190.1796875,348.203125,190.1796875,421.3589250706136,190.1796875,440.4337284093381" stroke-width="3" marker-end="url(#raphael-marker-endblock33-obj20)" style="-webkit-tap-highlight-color: rgba(0, 0, 0, 0);"></path><path fill="none" stroke="#000000" d="M190.1796875,480.9375C190.1796875,480.9375,190.1796875,519.13827085495,190.1796875,532.4376603176352" stroke-width="3" marker-end="url(#raphael-marker-endblock33-obj21)" style="-webkit-tap-highlight-color: rgba(0, 0, 0, 0);"></path><path fill="none" stroke="#000000" d="M190.1796875,654.40625C190.1796875,654.40625,190.1796875,727.5620500706136,190.1796875,746.6368534093381" stroke-width="3" marker-end="url(#raphael-marker-endblock33-obj22)" style="-webkit-tap-highlight-color: rgba(0, 0, 0, 0);"></path><text x="195.1796875" y="664.40625" text-anchor="start" font-family="&quot;Arial&quot;" font-size="14px" stroke="none" fill="#000000" style="-webkit-tap-highlight-color: rgba(0, 0, 0, 0); text-anchor: start; font-family: Arial; font-size: 14px;" stroke-width="1"><tspan dy="5" style="-webkit-tap-highlight-color: rgba(0, 0, 0, 0);">yes</tspan></text><path fill="none" stroke="#000000" d="M307.6484375,595.671875C307.6484375,595.671875,457.61258099297993,595.671875,485.6942455581937,595.671875" stroke-width="3" marker-end="url(#raphael-marker-endblock33-obj24)" style="-webkit-tap-highlight-color: rgba(0, 0, 0, 0);"></path><text x="312.6484375" y="585.671875" text-anchor="start" font-family="&quot;Arial&quot;" font-size="14px" stroke="none" fill="#000000" style="-webkit-tap-highlight-color: rgba(0, 0, 0, 0); text-anchor: start; font-family: Arial; font-size: 14px;" stroke-width="1"><tspan dy="5" style="-webkit-tap-highlight-color: rgba(0, 0, 0, 0);">no</tspan></text><path fill="none" stroke="#000000" d="M190.1796875,787.140625C190.1796875,787.140625,190.1796875,860.2964250706136,190.1796875,879.3712284093381" stroke-width="3" marker-end="url(#raphael-marker-endblock33-obj26)" style="-webkit-tap-highlight-color: rgba(0, 0, 0, 0);"></path><path fill="none" stroke="#000000" d="M374.359375,901.875C374.359375,901.875,399.359375,901.875,399.359375,901.875C399.359375,901.875,399.359375,601.671875,399.359375,601.671875C399.359375,601.671875,411.359375,595.671875,399.359375,589.671875C399.359375,589.671875,399.359375,511.9375,399.359375,511.9375C399.359375,511.9375,190.1796875,511.9375,190.1796875,511.9375C190.1796875,511.9375,190.1796875,525.2414712905884,190.1796875,532.4391276333481" stroke-width="3" marker-end="url(#raphael-marker-endblock33-obj27)" style="-webkit-tap-highlight-color: rgba(0, 0, 0, 0);"></path><path fill="none" stroke="#000000" d="M547.828125,613.671875C547.828125,613.671875,547.828125,686.8276750706136,547.828125,705.9024784093381" stroke-width="3" marker-end="url(#raphael-marker-endblock33-obj28)" style="-webkit-tap-highlight-color: rgba(0, 0, 0, 0);"></path></svg>